# xmcd CD database file
#
# Track frame offsets:
#        150
#        26265
#        42223
#        60830
#        80785
#        105073
#        127913
#        149115
#
# Disc length: 2323 seconds
#
# Revision: 0
# Processed by: cddbd v1.5.2PL0 Copyright (c) Steve Scherf et al.
# Submitted via: CUERipper 2.1.5
#
DISCID=5c091108
DTITLE=秦基博 - 僕らをつなぐもの
DYEAR=2009
DGENRE=Blues
TTITLE0=僕らをつなぐもの
TTITLE1=青
TTITLE2=季節が笑う
TTITLE3=シンクロ(Album Ver.)
TTITLE4=dot
TTITLE5=やわらかな午後に遅い朝食を
TTITLE6=プール
TTITLE7=風景(Acoustic Session with 冨田ラボ)
EXTD=
EXTT0=
EXTT1=
EXTT2=
EXTT3=
EXTT4=
EXTT5=
EXTT6=
EXTT7=
PLAYORDER=
